<?xml version="1.0" encoding="utf-8" ?>
<svg xmlns="http://www.w3.org/2000/svg" xmlns:xlink="http://www.w3.org/1999/xlink" width="1024" height="1024">
	<path transform="scale(2 2)" d="M236.759 316.951C232.227 314.184 227.121 312.149 222.352 309.785C195.925 296.682 163.171 275.552 158.113 244.494C156.241 233.001 158.921 219.744 160.168 208.139L166.246 153.284C167.15 145.364 168.553 137.425 169.154 129.481C169.808 120.839 166.207 98.9694 165.204 88.6272C164.55 81.8868 161.455 74.8637 170.98 74.0001L320.952 73.9953C327.481 73.9957 334.096 73.7535 340.612 74.0727C349.444 74.5052 347.34 80.3549 346.731 86.8721L344.049 113.399C342.318 130.168 343.831 136.004 345.578 152.7L351.118 205.501C354.402 234.676 358.539 256.427 334.898 280.238C319.806 295.439 291.595 309.453 271.45 316.951L271.441 359.736C271.441 370.071 269.808 387.237 274.649 396.713C276.835 400.994 283.317 403.515 287.297 405.708L303.768 414.694C310.074 418.139 318.713 423.98 325.178 425.979C329.964 430.463 328.977 436.91 322.081 437.289C314.333 437.715 306.092 437.307 298.281 437.306L208.099 437.305C201.644 437.308 180.92 440.662 181.231 431.183C181.392 426.299 190.591 422.848 194.061 420.921C201.813 416.614 228.348 402.681 232.728 398.288C237.479 393.522 236.764 387.554 236.766 381.339L236.759 316.951ZM260.309 262.999L260.309 262.999L260.309 262.999C267.898 255.217 276.061 241.191 283.797 232.082C265.135 211.99 265.055 220.575 288.085 198.007L314.323 172.332C321.147 165.762 328.123 159.362 334.782 152.621C330.454 126.403 332.85 111.205 336.058 84.9129L300.5 84.9129C298.185 84.8296 295.888 84.8603 293.574 84.9129C287.15 90.4892 281.443 97.2538 275.382 103.245L253.75 124.756C250.098 128.319 241.168 136.236 238.76 140.025C242.353 146.4 267.017 167.65 267.555 170.97C268.191 174.89 246.841 211.072 244.07 215.941L257.135 224.993C266.999 231.892 268.199 230.083 265.166 242.308C263.767 247.944 260.895 257.612 260.309 262.999ZM252.312 84.9129L175.685 84.9129C176.526 94.3582 177.661 103.83 178.712 113.257C181.839 141.324 173.666 164.14 173.269 191.498C175.79 188.676 196.952 165.611 199.762 165.074C202.286 164.591 214.435 173.558 217.122 175.305C226.093 181.312 234.99 187.459 244.07 193.298C247.745 186.623 251.64 180.074 255.269 173.371L237.513 155.104C233.729 151.285 229.457 147.505 226.125 143.306C221.867 137.94 230.268 132.859 233.679 129.451L267.653 95.7242C271.27 92.0743 274.75 88.2541 278.663 84.9129L252.312 84.9129ZM336.058 166.542C332.187 169.378 328.985 173.098 325.606 176.49C311.897 190.247 297.385 203.207 283.797 217.077L284.097 217.388C287.008 220.37 296.833 226.837 297.212 230.611C295.615 235.815 288.582 243.286 285.232 247.703L256.906 285.253C254.359 288.661 251.612 295.518 246.31 293.498C240 291.094 246.496 274.986 247.538 270.687C250.228 259.59 252.851 248.416 255.269 237.256C250.966 234.049 246.656 230.857 242.292 227.733C225.94 216.029 230.494 219.684 238.76 203.031C227.39 194.772 213.488 185.26 201.524 177.834C197.077 182.302 172.967 205.754 171.379 208.985C170.286 211.21 168.37 232.802 168.387 236.064C168.555 267.818 205.881 290.182 231.093 301.926C251.577 312.113 247.755 305.691 247.762 329.492L247.757 381.396C247.747 400.911 245.278 404.695 227.258 414.833L207.192 425.979L301.26 425.979C294.153 422.472 273.735 412.113 268.806 407.309C258.916 397.67 260.314 381.016 260.306 368.316L260.301 344.227C260.302 338.173 259.596 314.134 261.111 309.641C263.521 307.698 276.424 303.121 280.067 301.532C311.953 287.62 345.131 269.33 342.629 229.82C342.212 223.232 336.617 167.666 336.058 166.542Z"/>
</svg>
