<?xml version="1.0" encoding="utf-8" ?>
<svg xmlns="http://www.w3.org/2000/svg" xmlns:xlink="http://www.w3.org/1999/xlink" width="512" height="512">
	<path d="M0 0L450.353 0L461.393 0L512 0L512 50.1117L512 62.9627L512 250.571L512 279.555L512 512L0 512L0 279.555L0 251.877L0 127.821L0 119.052L0 0ZM0 0L0 119.052L0 127.821L0 251.877C4.66138 236.749 11.498 235.109 26.1263 235.184L42.1715 235.244C46.8654 235.242 57.4891 234.219 61.464 235.215C64.9687 223.454 64.1655 214.091 78.7526 209.167C86.1689 206.663 92.2605 208.157 99.0631 211.544C107.028 196.888 119.719 191.986 134.989 199.589C146.162 176.235 178.529 180.475 182.166 207.25C199.368 203.463 210.029 219.635 210.854 235.215C217.852 234.812 225.084 235.208 232.105 235.21L279.062 235.215C286.767 235.216 294.596 235.54 302.286 235.215C301.659 217.447 312.468 205.917 330.442 208.369C331.81 191.826 345.058 179.998 361.755 185.744C370.17 188.64 373.599 193.696 377.303 201.302L378.12 200.894C391.357 194.431 405.842 197.623 412.42 211.544C425.167 201.525 444.239 209.561 448.58 224.688C449.6 228.241 450.027 231.755 451.438 235.215L481.237 235.213C496.958 235.189 505.069 233.854 512 250.571L512 62.9627L512 50.1117L512 0L461.393 0L450.353 0L0 0ZM0 279.555L0 512L512 512L512 279.555C507.4 295.846 498.159 296.414 483.472 296.396L462.378 296.377C462.765 301.671 463.91 306.959 464.849 312.178L494.839 484.233C495.762 489.789 498.662 497.17 494.334 501.993C491.365 505.3 485.762 505.672 482.559 502.488C479.459 499.407 479.458 493.976 478.661 489.92C477.468 493.334 481.445 495.531 477.539 496.34C473.143 497.249 468.386 496.831 463.911 496.805L404.473 496.784C399.572 496.792 383.329 499.217 382.653 494.255L382.45 494.253L382.377 494.405C382.483 498.379 380.52 502.501 376.504 503.685C363.818 507.426 364.169 488.983 362.93 481.276L357.137 446.929C356.139 440.867 355.69 434.566 354.185 428.611L295.656 370.752C292.557 367.653 289.159 364.624 286.375 361.245C268.546 339.608 292.919 309.325 318.246 323.215C317.122 314.181 314.993 305.362 313.631 296.377C304.852 296.11 296.051 296.368 287.267 296.373L228.275 296.379C218.415 296.379 208.502 296.634 198.65 296.377C197.754 299.91 197.18 303.549 196.464 307.123L193.093 323.215C211.271 314.928 232.051 322.882 232.272 344.254C232.38 354.692 226.651 360.515 219.773 367.374L170.41 416.713C167.846 419.281 159.308 427.088 157.84 429.824C155.663 433.88 149.762 477.232 148.656 483.979C148.023 487.84 147.406 496.075 145.94 499.448C143.65 504.717 135.71 505.931 131.978 501.563C128.654 497.673 130.611 491.774 131.268 487.298C132.749 477.2 135.509 465.261 136.286 455.327L136.305 455.043C133.517 457.907 132.217 488.914 129.499 495.654L129.638 495.641C129.384 495.393 129.297 495.294 129.152 494.973C127.26 497.94 120.588 496.79 117.648 496.77L42.6181 496.777C39.358 496.761 36.0713 496.081 32.9485 496.094C33.1841 491.623 37.7647 470.858 37.0975 468.88C35.6806 475.563 34.6325 482.363 33.472 489.095C32.3815 495.421 31.9108 506.132 22.5679 504.576C9.83475 502.454 18.572 478.445 20.1191 469.643L47.7244 306.829C48.3041 303.349 48.7102 299.839 49.3951 296.377L30.0627 296.383C14.8944 296.475 5.10561 296.44 0 279.555ZM37.0975 468.88C37.7647 470.858 33.1841 491.623 32.9485 496.094C36.0713 496.081 39.358 496.761 42.6181 496.777L117.648 496.77C120.588 496.79 127.26 497.94 129.152 494.973C129.297 495.294 129.384 495.393 129.638 495.641L129.499 495.654C132.217 488.914 133.517 457.907 136.305 455.043C137.998 449.255 139.244 438.72 140.201 432.583C142.297 419.146 143.284 420.783 152.185 411.913L192.638 370.855C198.392 364.998 204.054 359.054 210.098 353.49C223.264 341.367 209.835 332.57 202.749 336.81C195.692 341.034 181.144 365.221 173.202 351.423C170.794 347.24 173.398 339.615 174.225 335.248L189.288 256.759C190.23 252.113 194.475 233.684 193.955 230.222C193.185 225.089 186.432 221.781 181.95 224.513C176.135 228.056 168.827 279.666 167.303 287.828C166.12 294.165 165.577 301.133 163.511 307.219C161.262 313.842 151.571 314.958 148.178 308.571C146.176 304.803 148.123 299.522 148.867 295.645L162.533 225.27C163.258 221.622 166.043 210.67 165.791 208.011C165.272 202.543 158.839 199.602 154.12 201.925C148.827 204.53 148.713 212.955 147.755 217.999L143.944 238.157C141.168 252.942 137.83 267.637 135.166 282.44L132.33 298.046C131.455 302.827 131.243 309.283 126.337 311.856C122.169 314.042 117.376 312.622 115.325 308.334C112.868 303.198 117.323 287.399 118.377 281.748L127.116 236.471C127.918 232.299 130.339 223.128 129.893 219.357C129.242 213.864 123.385 210.888 118.592 213.431C112.515 216.655 111.781 231.651 110.569 237.749L100.737 289.638C99.8318 294.185 98.5749 303.901 96.9966 307.768C94.5519 313.757 85.3727 314.67 82.225 308.744C79.4982 303.611 83.5856 290.485 84.6326 284.961L91.6604 248.847C92.6364 244.062 95.2683 235.243 94.5184 230.634C93.644 225.259 87.3308 222.901 82.8245 225.477C78.1258 228.163 78.2358 234.867 77.3368 239.58L73.5881 258.615C65.4275 298.366 59.0588 338.426 52.4987 378.469L42.4014 438.141C40.6307 448.318 38.2298 458.619 37.0975 468.88ZM414.167 304.812C412.019 307.348 401.912 304.99 398.285 305.744C396.129 313.084 386.953 316.274 382.377 308.848C375.208 316.176 371.367 313.375 363.326 310.185L363.073 310.431C358.356 314.92 351.057 313.915 349.029 307.253C347.792 303.188 347.353 298.654 346.445 294.473C344.554 285.769 335.993 233.272 333.011 228.259C328.926 221.394 318.532 224.049 318.77 231.936C318.967 238.467 321.597 247.978 322.815 254.844L338.343 338.076C339.151 342.534 340.838 348.1 337.36 351.897C328.115 361.992 316.617 341.899 309.402 337.403C302.992 333.409 296.488 339.688 297.15 346.29C297.639 351.163 350.301 400.657 357.421 407.838C371.986 422.531 369.721 417.158 372.877 437.646C373.769 443.443 381.399 493.005 382.377 494.405L382.45 494.253L382.653 494.255C383.329 499.217 399.572 496.792 404.473 496.784L463.911 496.805C468.386 496.831 473.143 497.249 477.539 496.34C481.445 495.531 477.468 493.334 478.661 489.92C477.564 481.079 475.857 472.186 474.363 463.398L434.64 239.005C433.734 234.346 433.809 227.491 429.108 224.84C424.68 222.343 418.558 224.779 417.635 229.959C416.933 233.894 419.033 241.698 419.793 245.794L427.781 287.956C428.764 293.177 430.685 299.426 430.918 304.64C431.291 312.96 417.631 319.444 414.167 304.812ZM363.326 310.185C371.367 313.375 375.208 316.176 382.377 308.848C380.854 305.258 380.528 301.337 379.854 297.534C375.429 272.573 370.347 247.635 365.084 222.841C364.141 218.397 363.329 210.151 361.753 206.356C358.996 199.718 349.727 199.528 347.172 206.251C345.315 211.138 350.499 229.468 351.607 235.078L362.213 288.56C363.543 295.436 367.406 303.726 363.326 310.185ZM398.285 305.744C401.912 304.99 412.019 307.348 414.167 304.812C409.559 282.995 405.888 260.972 401.462 239.116C400.244 233.102 399.689 225.695 397.93 219.996C394.889 210.144 381.567 213.218 382.321 223.081C382.761 228.842 384.59 234.789 385.654 240.48C388.896 257.828 392.614 275.076 395.917 292.419C396.719 296.63 398.393 301.474 398.285 305.744Z"/>
	<path fill="#7CCFF9" d="M23.2623 251.877L57.8663 251.877C55.9315 259.864 55.0351 272.451 52.3516 279.538C51.7304 279.85 51.5286 279.7 50.8646 279.555C44.0151 279.749 37.1205 279.512 30.2658 279.534C24.5498 279.552 16.8403 282.071 16.4004 273.955C16.2235 270.69 15.7696 254.654 17.3232 253.084C18.718 251.674 21.4494 251.918 23.2623 251.877Z"/>
	<path fill="#7CCFF9" d="M455.952 251.877C461.436 251.591 492.433 251.179 494.811 252.774C496.458 253.878 497.292 275.407 494.303 279.134C490.745 280.503 486.159 279.576 482.416 279.57L459.095 279.555C458.087 274.143 454.351 255.881 454.731 252.404C455.119 251.874 455.33 251.992 455.952 251.877Z"/>
	<path fill="#7CCFF9" d="M208.167 251.877L305.635 251.877C307.22 261.082 308.866 270.299 310.122 279.555C308.124 279.531 306.124 279.553 304.125 279.555L202.177 279.555C202.41 276.646 206.278 253.229 207.129 252.016L208.167 251.877Z"/>
	<path d="M293.348 7.12625C343.993 4.75289 389.124 47.6388 392.171 97.7363C392.604 104.869 392.359 112.134 392.377 119.284C392.417 135.398 392.763 158.295 370.247 159.535C337.117 159.583 345.274 125.047 343.796 102.797C342.394 81.6786 327.401 62.6461 306.842 57.0345C296.968 54.3394 287.91 56.5341 279.605 49.1845C263.063 34.5462 271.525 8.35519 293.348 7.12625ZM293.348 23.4994C286.091 24.8036 285.686 34.0068 291.711 37.5575C294.582 39.2489 298.367 38.7514 301.58 39.0588C328.316 41.6163 351.014 63.6747 358.11 88.8865C361.51 100.965 360.48 114.291 360.475 126.734C360.473 132.418 359.416 146.142 370.247 142.916C378.197 139.342 376.062 130.669 376.008 123.46C375.871 104.954 376.682 88.5383 368.517 71.2702C355.396 43.5211 324.994 21.3407 293.348 23.4994Z"/>
	<path d="M450.353 0L461.393 0L512 0L512 50.1117L512 62.9627C511.361 65.108 511.094 67.4465 510.601 69.6399C498.177 124.957 416.525 126.601 401.798 71.2462C394.233 42.815 410.503 12.1733 438.522 2.87816C442.419 1.5851 446.412 1.05123 450.353 0ZM451.438 16.749C416.399 22.3797 402.701 66.9114 433.315 88.6262C440.717 93.8762 451.5 96.8807 460.557 95.3996C495.686 91.5206 508.207 47.1912 480.102 24.7316C472.283 18.4833 461.354 15.6902 451.438 16.749ZM461.393 0C463.124 0.615062 464.953 0.809462 466.743 1.18083C483.394 4.6357 498.229 15.1851 505.93 30.6457C509.067 36.9456 510.223 43.4147 512 50.1117L512 0L461.393 0Z"/>
	<path d="M455.952 25.2504C468.896 24.1038 486.123 35.6355 486.339 48.6795C486.421 53.569 482.486 57.1876 477.647 57.0426C470.291 56.8221 470.532 49.0472 466.493 44.8742C456.857 34.9194 440.252 49.4743 453.149 61.2715C457.057 64.0371 462.536 64.4243 463.766 69.9087C466.669 82.8461 452.386 80.8921 444.409 75.5738C423.674 61.7498 429.22 29.9368 455.952 25.2504Z"/>
	<path d="M261.442 74.0891C275.866 72.1867 286.578 83.2351 289.693 96.4267C314.736 89.0527 335.102 113.061 322.743 134.16C321.345 136.547 319.662 138.759 318.246 141.146C319.6 143.135 321.14 145 322.398 147.054C335.496 168.446 316.768 191.992 289.693 184.998C286.819 197.796 277.922 207.008 264.188 207.25C251.159 208.034 239.903 197.705 238.331 184.998C208.417 196.786 188.429 158.899 210.854 141.146C208.405 138.218 205.549 135.475 203.693 132.113C196.913 119.828 202.767 103.649 214.792 97.1881C222.659 92.9615 230.143 93.913 238.331 96.4267C241.189 84.4436 248.462 75.3913 261.442 74.0891ZM262.556 90.5098C251.889 93.7656 254.029 103.427 255.618 112.245C259.177 111.61 262.694 111.184 266.312 111.25C268.375 111.505 270.395 111.824 272.431 112.245C273.209 103.074 276.949 89.8739 262.556 90.5098ZM225.511 111.25C217.133 112.693 213.756 122.984 221.638 127.827C225.415 130.147 230.517 130.653 234.677 132.162L235.253 132.424C236.096 131.833 236.603 128.836 237.16 127.67C238.386 125.102 240.03 122.946 241.933 120.847C237.569 115.933 232.801 109.459 225.511 111.25ZM234.677 148.777C229.707 149.888 221.961 151.023 219.122 155.714C215.369 161.917 219.13 168.802 225.511 170.747C233.661 170.863 236.446 165.456 241.933 160.588C238.479 157.461 236.258 153.542 235.201 148.992C235.03 148.911 234.866 148.785 234.677 148.777ZM293.348 148.777C290.991 152.648 288.875 156.68 286.564 160.588C291.397 166.483 295.971 171.663 304.125 170.091C315.546 160.017 307.599 148.468 293.348 148.777ZM299.627 111.25C293.786 112.118 290.062 116.421 286.564 120.847C288.455 123.819 290.487 126.76 291.847 130.024C293.637 130.749 295.422 131.526 297.244 132.162C311.216 134.061 314.492 112.845 299.627 111.25ZM271.517 170.091C265.891 171.055 261.267 170.958 255.618 170.091C254.563 176.742 252.071 183.984 258.097 188.966C273.172 198.646 276.363 173.393 271.903 170.073L271.517 170.091Z"/>
	<path fill="#F0DC55" d="M262.556 127.821C279.558 125.659 283.15 151.644 265.43 154.357C247.998 155.787 244.09 131.002 262.556 127.821Z"/>
	<path d="M0 119.052C3.51478 105.402 8.19038 103.656 17.7238 93.9015C29.0401 82.3226 40.6016 70.9942 52.0416 59.5418L89.5365 22.0173C95.2001 16.399 101.605 8.43775 108.44 4.40623C129.597 -8.07314 142.479 10.4732 155.29 23.4305L171.868 40.2051C175.805 44.1358 183.472 50.81 186.091 55.4642C197.696 76.0874 180.271 89.5778 167.695 102.211L103.346 166.74C90.6688 179.392 79.7375 195.476 59.4067 188.909C51.797 186.452 46.4116 180.319 40.922 174.835L25.233 158.885C14.7828 148.246 4.42825 142.244 0 127.821L0 119.052Z"/>
	<path fill="#FEBAB7" d="M166.468 58.6563C167.791 59.1032 169.857 61.1458 170.686 62.2623C177.648 71.6405 166.844 79.4496 160.849 85.4089L82.6951 163.892C77.9153 168.736 73.3159 175.581 65.5361 173.812C62.3639 172.654 59.8224 170.625 57.8663 167.892C74.0045 151.266 90.4927 135 106.831 118.573L166.468 58.6563Z"/>
	<path fill="#FEBAB7" d="M120.137 16.749C126.732 17.3823 128.113 18.7766 132.333 23.4994C128.509 28.6684 122.461 33.9301 117.81 38.5758L92.2686 64.1311C69.9944 86.2555 48.3771 109.052 25.9002 130.97L23.2623 133.795C19.7941 130.755 13.2652 123.885 17.0972 118.777C23.0148 110.889 35.9415 99.7363 43.3909 92.1071L89.5306 45.7817C95.9802 39.3409 112.754 20.1012 120.137 16.749Z"/>
	<path fill="#FEBAB7" d="M143.945 36.018C147.768 39.0634 151.214 43.117 154.6 46.6502C150.775 50.9402 146.405 54.9201 142.371 59.0365L66.6476 135.25C59.806 142.251 53.2248 149.748 46.0168 156.36C42.3309 152.959 37.9654 149.344 34.9849 145.333C40.1108 140.325 45.0807 135.153 50.1577 130.095L105.492 74.9001C118.287 61.9165 130.914 48.7672 143.945 36.018Z"/>
</svg>
