<svg version="1.2" xmlns="http://www.w3.org/2000/svg" viewBox="0 0 512 512" width="512" height="512">
	<title>Knete</title>
	<style>
		.s0 { fill: #000000 } 
	</style>
	<path fill-rule="evenodd" class="s0" d="m26.1 235.2h16.1c4.7 0 15.3-1 19.3 0 3.5-11.7 2.7-21.1 17.3-26 7.4-2.5 13.5-1 20.3 2.3 7.9-14.6 20.6-19.5 35.9-11.9 11.2-23.4 43.5-19.1 47.2 7.7 17.2-3.8 27.8 12.3 28.7 27.9 7-0.4 14.2 0 21.2 0h47c7.7 0 15.5 0.3 23.2 0-0.6-17.8 10.2-29.3 28.1-26.8 1.4-16.6 14.7-28.4 31.4-22.7 8.4 2.9 11.8 8 15.5 15.6l0.8-0.4c13.3-6.5 27.7-3.3 34.3 10.6 12.8-10 31.8-1.9 36.2 13.2 1 3.5 1.4 7.1 2.8 10.5h29.8c15.8 0 23.9-1.3 30.8 15.4v29c-4.6 16.2-13.8 16.8-28.5 16.8h-21.1c0.4 5.3 1.5 10.6 2.4 15.8l30 172c1 5.6 3.9 13-0.5 17.8-2.9 3.3-8.5 3.7-11.7 0.5-3.1-3.1-3.1-8.5-3.9-12.6-1.1-8.8-2.8-17.7-4.3-26.5l-39.8-224.4c-0.9-4.7-0.8-11.5-5.5-14.2-4.4-2.5-10.5 0-11.5 5.2-0.7 3.9 1.4 11.7 2.2 15.8l8 42.2c1 5.2 2.9 11.4 3.1 16.6 0.4 8.4-13.3 14.8-16.7 0.2-4.6-21.8-8.3-43.8-12.7-65.7-1.3-6-1.8-13.4-3.6-19.1-3-9.9-16.3-6.8-15.6 3.1 0.5 5.7 2.3 11.7 3.4 17.4 3.2 17.3 6.9 34.6 10.2 51.9 0.8 4.2 2.5 9.1 2.4 13.3-2.2 7.4-11.3 10.6-15.9 3.1-1.5-3.5-1.9-7.5-2.5-11.3-4.5-24.9-9.6-49.9-14.8-74.7-1-4.4-1.8-12.6-3.3-16.4-2.8-6.7-12.1-6.9-14.6-0.1-1.9 4.8 3.3 23.2 4.4 28.8l10.6 53.5c1.3 6.8 5.2 15.1 1.1 21.6l-0.2 0.2c-4.7 4.5-12 3.5-14.1-3.1-1.2-4.1-1.6-8.6-2.6-12.8-1.8-8.7-10.4-61.2-13.4-66.2-4.1-6.9-14.5-4.3-14.2 3.6 0.2 6.6 2.8 16.1 4 22.9l15.5 83.3c0.9 4.4 2.5 10-0.9 13.8-9.3 10.1-20.8-10-28-14.5-6.4-4-12.9 2.3-12.3 8.9 0.5 4.9 53.2 54.4 60.3 61.5 14.6 14.7 12.3 9.4 15.5 29.8 0.9 5.8 8.5 55.4 9.5 56.8 0.1 4-1.9 8.1-5.9 9.3-12.7 3.7-12.3-14.7-13.6-22.4l-5.8-34.4c-1-6-1.4-12.3-2.9-18.3l-58.5-57.8c-3.1-3.1-6.5-6.2-9.3-9.6-17.9-21.6 6.5-51.9 31.8-38-1.1-9-3.2-17.8-4.6-26.8-8.7-0.3-17.5 0-26.3 0h-59c-9.9 0-19.8 0.2-29.6 0-0.9 3.5-1.5 7.1-2.2 10.7l-3.4 16.1c18.2-8.3 39-0.3 39.2 21.1 0.1 10.4-5.6 16.2-12.5 23.1l-49.4 49.3c-2.6 2.6-11.1 10.4-12.6 13.1-2.1 4.1-8 47.4-9.1 54.2-0.7 3.8-1.3 12.1-2.8 15.4-2.3 5.3-10.2 6.5-13.9 2.2-2.1-2.5-2.1-5.8-1.7-9 0.3-1.2 0.6-2.8 0.8-4.4q0.1-0.5 0.2-0.9c1.4-10.1 4.2-22 5-32v-0.3c1.7-5.7 2.9-16.3 3.9-22.4 2.1-13.5 3.1-11.8 12-20.7l40.4-41c5.8-5.9 11.5-11.8 17.5-17.4 13.2-12.1-0.3-20.9-7.4-16.7-7 4.2-21.6 28.4-29.5 14.6-2.4-4.2 0.2-11.8 1-16.2l15.1-78.4c0.9-4.7 5.2-23.1 4.7-26.6-0.8-5.1-7.6-8.4-12.1-5.7-5.8 3.6-13.1 55.2-14.6 63.3-1.2 6.4-1.7 13.3-3.8 19.4-2.2 6.6-11.9 7.8-15.3 1.4-2-3.8-0.1-9.1 0.7-13l13.6-70.3c0.8-3.7 3.5-14.6 3.3-17.3-0.5-5.5-7-8.4-11.7-6.1-5.3 2.6-5.4 11.1-6.3 16.1l-3.9 20.2c-2.7 14.7-6.1 29.4-8.7 44.2l-2.9 15.6c-0.8 4.8-1.1 11.3-6 13.9-4.1 2.1-8.9 0.7-11-3.6-2.4-5.1 2-20.9 3.1-26.6l8.7-45.2c0.8-4.2 3.2-13.4 2.8-17.1-0.7-5.5-6.5-8.5-11.3-6-6.1 3.3-6.8 18.3-8 24.3l-9.9 51.9c-0.9 4.6-2.1 14.3-3.7 18.2-2.4 6-11.6 6.9-14.8 0.9-2.7-5.1 1.4-18.2 2.4-23.7l7.1-36.2c0.9-4.7 3.6-13.6 2.8-18.2-0.9-5.3-7.2-7.7-11.7-5.1-4.7 2.7-4.6 9.4-5.5 14.1l-3.7 19c-8.2 39.8-14.5 79.8-21.1 119.9l-10.1 59.6c-1.8 10.2-4.2 20.5-5.3 30.8-1.4 6.7-2.5 13.5-3.6 20.2-1.1 6.3-1.6 17-10.9 15.5-12.8-2.1-4-26.2-2.5-35l27.6-162.8c0.6-3.5 1-7 1.7-10.4h-19.3c-15.2 0.1-25 0-30.1-16.8v-27.7c4.7-15.2 11.5-16.8 26.1-16.7zm-8.8 17.9c-1.5 1.6-1.1 17.6-0.9 20.9 0.4 8.1 8.1 5.6 13.9 5.5 6.8 0 13.7 0.2 20.6 0.1 0.6 0.1 0.8 0.3 1.5-0.1 2.6-7 3.5-19.6 5.5-27.6h-34.6c-1.9 0-4.6-0.2-6 1.2zm437.4-0.7c-0.3 3.5 3.4 21.7 4.4 27.2h23.3c3.8 0 8.3 0.9 11.9-0.5 3-3.7 2.2-25.2 0.5-26.3-2.4-1.6-33.4-1.2-38.8-0.9-0.7 0.1-0.9 0-1.3 0.5zm-247.6-0.4c-0.8 1.2-4.7 24.6-4.9 27.6h101.9c2 0 4-0.1 6 0-1.2-9.3-2.9-18.5-4.5-27.7h-97.4z"/>
	<path class="s0" d="m293.3 7.1c50.7-2.3 95.8 40.5 98.9 90.6 0.4 7.2 0.2 14.4 0.2 21.6 0 16.1 0.4 39-22.2 40.2-33.1 0.1-24.9-34.5-26.4-56.7-1.4-21.1-16.4-40.2-37-45.8-9.8-2.7-18.9-0.5-27.2-7.8-16.5-14.7-8.1-40.8 13.7-42.1zm0 16.4c-7.2 1.3-7.6 10.5-1.6 14.1 2.9 1.6 6.7 1.2 9.9 1.5 26.7 2.5 49.4 24.6 56.5 49.8 3.4 12.1 2.4 25.4 2.4 37.8 0 5.7-1.1 19.4 9.7 16.2 8-3.6 5.9-12.2 5.8-19.4-0.1-18.5 0.7-35-7.5-52.2-13.1-27.8-43.5-50-75.2-47.8z"/>
	<path class="s0" d="m450.4 0h11 50.6v50.1 12.9c-0.6 2.1-0.9 4.4-1.4 6.6-12.4 55.4-94.1 57-108.8 1.6-7.6-28.4 8.7-59 36.7-68.3 3.9-1.3 7.9-1.8 11.9-2.9zm1 16.7c-35 5.7-48.7 50.2-18.1 71.9 7.4 5.3 18.2 8.3 27.3 6.8 35.1-3.9 47.6-48.2 19.5-70.7-7.8-6.2-18.7-9-28.7-8zm10-16.7c1.7 0.6 3.6 0.8 5.3 1.2 16.7 3.4 31.5 14 39.2 29.4 3.2 6.3 4.3 12.8 6.1 19.5v-50.1z"/>
	<path class="s0" d="m456 25.3c12.9-1.2 30.1 10.3 30.3 23.4 0.1 4.9-3.8 8.5-8.7 8.3-7.3-0.2-7.1-8-11.1-12.1-9.6-10-26.2 4.6-13.4 16.4 4 2.7 9.4 3.1 10.7 8.6 2.9 12.9-11.4 11-19.4 5.7-20.7-13.9-15.2-45.7 11.6-50.3z"/>
	<path fill-rule="evenodd" class="s0" d="m261.4 74.1c14.5-1.9 25.2 9.1 28.3 22.3 25-7.3 45.4 16.7 33 37.8-1.4 2.3-3 4.6-4.5 6.9 1.4 2 2.9 3.9 4.2 6 13.1 21.3-5.6 44.9-32.7 37.9-2.9 12.8-11.8 22-25.5 22.3-13 0.7-24.3-9.6-25.9-22.3-29.9 11.8-49.9-26.1-27.4-43.9-2.5-2.9-5.4-5.6-7.2-9-6.8-12.3-0.9-28.5 11.1-34.9 7.9-4.2 15.3-3.3 23.5-0.8 2.9-12 10.2-21 23.1-22.3zm1.2 16.4c-10.7 3.3-8.6 12.9-7 21.7 3.6-0.6 7.1-1 10.7-0.9 2.1 0.2 4.1 0.5 6.1 0.9 0.8-9.1 4.5-22.3-9.8-21.7zm-37.1 20.8c-8.4 1.4-11.7 11.7-3.9 16.5 3.8 2.3 8.9 2.9 13.1 4.4l0.6 0.2c0.8-0.6 1.3-3.6 1.9-4.7 1.2-2.6 2.8-4.8 4.7-6.9-4.3-4.9-9.1-11.3-16.4-9.5zm9.2 37.5c-5 1.1-12.7 2.2-15.6 6.9-3.7 6.2 0 13.1 6.4 15 8.2 0.2 10.9-5.2 16.4-10.1-3.4-3.1-5.6-7.1-6.7-11.6-0.2-0.1-0.3-0.2-0.5-0.2zm58.6 0c-2.3 3.8-4.4 7.9-6.7 11.8 4.8 5.9 9.4 11.1 17.5 9.5 11.4-10.1 3.5-21.6-10.8-21.3zm6.3-37.5c-5.8 0.8-9.5 5.1-13 9.5 1.9 3 3.9 6 5.2 9.2 1.8 0.7 3.6 1.5 5.4 2.2 14 1.9 17.3-19.4 2.4-20.9zm-28.1 58.8c-5.6 1-10.2 0.9-15.9 0-1 6.6-3.5 13.9 2.5 18.9 15.1 9.6 18.3-15.6 13.8-18.9zm-6.1-15.8c17.7-2.7 14.1-28.7-2.9-26.5-18.4 3.2-14.5 28 2.9 26.5z"/>
	<path fill-rule="evenodd" class="s0" d="m0 119.1c3.5-13.7 8.2-15.4 17.7-25.2 11.3-11.6 22.9-22.9 34.3-34.4l37.5-37.5c5.7-5.6 12.1-13.6 18.9-17.6 21.2-12.5 34.1 6.1 46.9 19l16.6 16.8c3.9 3.9 11.6 10.6 14.2 15.3 11.6 20.6-5.8 34.1-18.4 46.7l-64.4 64.5c-12.6 12.7-23.6 28.8-43.9 22.2-7.6-2.4-13-8.6-18.5-14.1l-15.7-15.9c-10.4-10.7-20.8-16.7-25.2-31.1zm106.8-0.5c-16.3 16.5-32.8 32.7-48.9 49.4 1.9 2.7 4.5 4.7 7.6 5.9 7.8 1.7 12.4-5.1 17.2-9.9l78.1-78.5c6-6 16.8-13.8 9.9-23.2-0.8-1.1-2.9-3.1-4.2-3.6zm-17.3-72.8l-46.2 46.4c-7.4 7.6-20.3 18.7-26.3 26.6-3.8 5.1 2.7 12 6.2 15l2.6-2.8c22.5-21.9 44.1-44.7 66.4-66.8l25.5-25.6c4.7-4.6 10.7-9.9 14.6-15-4.2-4.8-5.6-6.2-12.2-6.8-7.4 3.4-24.2 22.6-30.6 29zm15.9 29.2l-55.3 55.1c-5.1 5.1-10.1 10.3-15.2 15.3 3 4 7.4 7.6 11.1 11 7.2-6.6 13.7-14.1 20.6-21.1l75.7-76.2c4-4.1 8.4-8.1 12.2-12.4-3.3-3.5-6.8-7.6-10.6-10.6-13 12.7-25.7 25.9-38.5 38.9z"/>
</svg>