<?xml version="1.0" encoding="utf-8" ?>
<svg xmlns="http://www.w3.org/2000/svg" xmlns:xlink="http://www.w3.org/1999/xlink" width="512" height="512">
	<path d="M430.455 88.8139C442.141 86.6032 441.285 106.811 441.723 113.22L456.05 299.42C457.464 316.172 457.788 335.981 460.163 352.164C460.583 355.026 465.142 359.258 466.958 361.5L499.704 402.777C501.092 404.492 503.015 405.737 504.219 407.607C507.593 412.85 503.494 420.927 497.22 421.13C492.426 421.286 484.629 420.015 479.66 419.503L194.69 389.111C179.265 387.432 160.079 387.152 145.25 384.446C135.993 382.758 136.415 373.653 134.778 366.417C131.38 351.401 128.641 336.218 125.715 321.107L103.925 211.749C103.241 208.213 99.7866 186.7 98.2335 185.248L42.8372 185.246C37.3533 185.245 21.8472 185.874 17.2524 184.679C10.1742 182.838 7.52818 173.338 13.0688 168.268C15.3314 166.197 18.4868 164.499 21.0187 162.724L72.3322 125.746C88.1557 114.099 84.5628 112.081 104.156 111.668L138.636 111.168C151.421 111.165 150.629 111.211 155.719 123.902L161.294 137.716C170.236 159.435 178.459 181.43 187.531 203.095C190.481 210.141 192.847 217.551 196.396 224.32C198.504 220.983 200.304 217.378 202.214 213.919L259.757 109.639C263.409 102.957 264.324 97.6399 272.413 95.6299C279.556 97.2833 281.16 101.432 285.514 106.897L335.405 169.143C345.241 181.599 354.992 194.193 365.401 206.178C370.739 196.54 375.419 186.553 380.453 176.758L418.403 102.824C421.771 96.0422 422.327 90.6833 430.455 88.8139ZM397.434 300.273C386.104 304.766 374.372 308.423 362.778 312.175L202.366 366.352C198.155 367.796 193.779 368.983 189.669 370.687C194.835 371.436 200.105 371.771 205.303 372.272L276.607 380C280.762 380.463 284.897 381.11 289.059 381.502C301.576 383.14 314.153 384.346 326.705 385.677L440.662 398.139C452.555 399.422 464.585 400.947 476.527 401.579C471.312 394.175 465.207 387.334 459.644 380.172C455.696 375.089 398.939 300.979 397.434 300.273ZM125.875 128.742L105.126 128.742C105.541 134.095 106.972 139.497 108.079 144.749L147.599 340.151C148.517 344.772 149.068 349.855 150.492 354.312C154.241 349.597 159.812 341.132 163.524 337.346C176.112 320.499 188.336 303.383 201.541 287.009C188.729 252.452 174.797 218.324 161.047 184.133L149.974 156.544C146.347 147.274 142.871 137.931 139.042 128.742C134.632 128.335 130.291 128.495 125.875 128.742ZM273.538 221.501C268.942 226.073 265.162 231.75 261.205 236.895L192.641 327.865C185.253 337.689 177.647 347.397 170.466 357.369C186.175 353.31 201.537 347.715 216.933 342.615C222.562 340.613 228.257 338.836 233.908 336.905L285.28 319.762C294.399 316.806 303.41 313.155 312.641 310.597C314.784 306.819 316.578 302.777 318.511 298.883L328.845 278.089C330.314 275.115 331.643 272.024 333.258 269.129C329.522 266.622 326.074 263.61 322.579 260.777L282.15 228.697C279.365 226.451 275.746 224.281 273.538 221.501ZM425.178 128.742C421.806 133.503 419.542 139.393 416.838 144.57L358.452 257.879L336.612 302.088C341.884 300.908 347.097 298.901 352.207 297.155L370.864 290.939C375.191 289.493 379.412 287.743 383.934 287.009C387.399 285.083 400.292 280.106 403.877 281.247C407.913 282.533 413.684 292.151 416.197 295.44C422.173 303.258 434.645 321.289 441.374 327.255C439.959 321.818 439.953 315.925 439.548 310.325L430.502 194.073C429.973 187.019 426.522 130.457 425.178 128.742ZM273.538 120.698C270.568 126.65 267.188 132.355 264.01 138.196L218.429 220.918C213.974 229.093 209.802 237.549 204.802 245.407C207.394 253.641 210.764 261.944 214.079 269.922L259.489 209.804C262.584 205.597 265.189 200.073 270.936 199.53C276.628 200.417 282.622 206.706 287.027 210.174L328.302 242.842C332.521 246.123 337.068 249.332 340.957 252.99C346.286 243.199 351.361 233.269 356.238 223.245C351.841 217.466 347.108 211.932 342.609 206.229L299.221 152.029C292.077 143.198 281.699 128.075 273.538 120.698ZM88.0412 136.198C80.814 140.755 74.0434 145.963 67.1129 150.95L42.7268 168.249C45.1423 168.19 47.5459 168.204 49.9609 168.249L94.8827 168.249C94.2174 164.452 89.2811 136.851 88.0412 136.198Z"/>
</svg>
