<?xml version="1.0" encoding="utf-8" ?>
<svg xmlns="http://www.w3.org/2000/svg" xmlns:xlink="http://www.w3.org/1999/xlink" width="1024" height="1024">
	<path transform="scale(2 2)" d="M235.946 180.498C219.532 157.806 211.691 141.597 208.251 112.466C206.986 101.757 210.373 92.6888 222.133 91.479L395.768 91.4966C406.324 91.4871 421.768 88.6576 424.338 103.373C425.704 111.198 423.101 126.066 421.576 133.989C461.443 138.491 482.625 179.984 459.401 213.411C450.59 226.092 438.722 231.898 423.921 234.581C424.131 241.185 425.643 247.523 425.503 254.217C424.641 295.468 405.587 323.52 377.43 350.692C372.886 377.727 360.032 374.357 338.712 374.334L285.17 374.335C266.903 374.334 256.841 372.536 256.469 351.534C249.047 346.326 244.319 340.471 238.867 333.44C223.009 348.511 217.537 357.606 194.255 366.542C197.605 369.011 200.783 371.697 204.008 374.325C206.402 377.683 209.128 380.81 211.261 384.345C214.944 390.448 224.707 419.246 211.113 419.993C202.252 420.48 193.17 420.097 184.289 420.098L107.755 420.103C90.5491 420.154 85.3234 421.418 90.2294 399.8C93.0678 387.293 100.823 373.524 111.855 366.542C108.508 364.531 104.901 362.929 101.434 361.132C47.4737 333.166 28.9 267.133 58.0997 214.849C88.1131 161.107 160.197 144.104 211.173 177.551C217.762 181.874 223.457 187.07 229.488 192.102C231.422 188.081 233.592 184.288 235.946 180.498ZM220.755 104.235C219.467 108.317 222.16 119.655 222.993 124.247L401.71 124.251C403.702 124.252 408.684 124.753 410.364 124.247C411.246 117.614 411.824 110.934 411.551 104.235L241.797 104.231C234.798 104.231 227.745 104.032 220.755 104.235ZM226.775 136.82C227.295 145.824 241.333 167.227 246.976 173.765L385.746 173.765C389.108 169.599 392.779 165.627 395.775 161.181C400.631 153.938 405.499 145.276 407.792 136.82C398.978 136.576 390.092 136.819 381.27 136.82L260.466 136.82C249.245 136.819 237.991 136.625 226.775 136.82ZM417.713 146.887C411.709 160.475 407.06 168.449 397.143 179.519C405.412 193.781 415.176 205.092 420.086 221.98C424.758 221.626 428.696 220.965 433.043 219.087C469.78 201.376 461.117 148.019 417.713 146.887ZM151.046 172.92C98.8358 174.507 55.1222 216.268 56.7896 269.579C58.3942 320.883 102.68 363.284 154.049 361.251C205.481 360.874 248.75 321.446 248.154 268.888C247.565 216.907 204.125 170.327 151.046 172.92ZM269.623 186.443L246.976 186.443C244.662 192.094 241.024 197.28 238.115 202.649C255.917 229.648 262.076 251.93 259.475 284.595C269.612 293.883 279.785 297.782 293.121 300.433C291.38 297.697 289.661 294.985 288.318 292.023C276.536 266.035 291.152 223.562 321.93 230.886C344.327 236.215 351.153 264.312 346.304 284.001C344.82 290.025 342.296 295.115 339.207 300.433C384.954 289.197 368.203 269.869 379.178 266.893C391.999 263.417 385.436 285.536 380.968 291.88C370.201 307.169 348.822 312.51 331.06 314.419C306.864 316.865 276.688 313.789 256.469 299.216C253.426 306.801 250.697 314.115 246.976 321.444C249.826 328.503 256.986 336.982 263.77 340.5L369.341 340.5C393.995 315.604 412.967 291.176 412.696 253.312C412.545 232.133 402.438 209.936 390.738 192.46C389.393 190.45 387.783 188.64 386.734 186.443C381.437 186.627 376.194 186.47 370.901 186.447L269.623 186.443ZM314.208 242.797C286.37 249.656 294.928 304.445 317.83 300.433C343.056 294.34 339.975 241.005 314.208 242.797ZM269.623 353.032C268.186 355.377 269.849 359.578 271.983 360.926C274.647 362.61 293.128 361.732 296.838 361.733L348.89 361.729C353.156 361.727 357.874 362.742 361.333 359.695C362.721 357.563 363.258 355.469 363.859 353.032L301.125 353.033C290.639 353.032 280.102 352.789 269.623 353.032ZM127.136 371.644C112.887 378.579 103.78 391.817 102.077 407.384L181.875 407.384C189.749 407.379 197.698 407.134 205.564 407.384C204.156 390.384 191.534 376.486 175.424 371.644C154.354 376.508 145.587 372.37 127.136 371.644Z"/>
	<path transform="scale(2 2)" d="M127.136 224.013C128.776 212.184 138.425 203.205 150.406 202.649C164.167 199.358 175.003 211.788 178.432 224.013C205.905 215.64 225.534 246.664 204.008 268.806C225.151 287.236 207.234 321.398 178.432 312.235C174.894 323.209 169.002 331.316 156.771 333.44C142.333 335.499 130.194 326.177 127.136 312.235C99.9251 320.069 80.6273 289.148 102.077 268.806C89.2286 256.083 88.4867 235.855 104.909 226.01C111.918 221.808 119.488 222.152 127.136 224.013ZM151.046 214.794C129.269 220.716 145.026 237.331 142.373 242.942C138.181 251.807 131.415 243.613 128.408 240.038C114.255 223.208 93.4982 251.404 112.655 260.708C117.244 262.937 123.542 260.52 125.798 266.243C128.741 273.714 120.831 274.705 116.083 275.683C97.1851 279.579 106.171 306.337 122.636 300.619C128.97 298.42 132.174 288.831 139.1 292.242C148.361 296.803 135.851 304.789 140.75 313.927C143.605 319.251 150.012 321.852 155.85 321.444C170.487 314.62 165.294 308.215 162.864 298.087C167.273 282.213 178.465 300.363 185.388 301.496C201.061 304.061 206.717 280.135 191.39 275.712C187.623 274.625 182.525 275.849 180.204 271.981C178.504 269.146 179.076 264.64 182.274 263.107C187.924 260.399 195.629 264.097 199.566 254.051C203.897 243 192.638 230.783 181.569 236.424C175.204 239.668 174.185 248.513 166.935 246.325C156.243 243.098 168.957 232.112 164.966 222.801C162.766 217.67 156.577 214.178 151.046 214.794Z"/>
	<path transform="scale(2 2)" d="M155.85 292.232C122.275 293.607 119.512 249.161 150.406 245.596C179.085 243.355 187.236 285.866 155.85 292.232ZM151.967 258.331C137.232 260.356 139.108 279.826 154.049 279.509C167.532 276.624 165.641 258.432 151.967 258.331Z"/>
</svg>
