<?xml version="1.0" encoding="utf-8" ?>
<svg xmlns="http://www.w3.org/2000/svg" xmlns:xlink="http://www.w3.org/1999/xlink" width="1024" height="1024">
	<path transform="scale(2 2)" d="M326.967 130.664C308.541 118.562 309.313 104.6 316.18 86.0024C317.859 81.4575 318.589 76.0069 324.041 74.7981C328.81 74.9471 339.936 80.8591 344.623 82.903L391.658 102.95C401.944 107.424 407.481 106.988 402.628 120.281C396.13 138.08 388.594 147.94 368.007 146.583C366.761 149.601 362.322 161.455 360.735 163.066C357.272 166.581 357.006 162.954 354.383 169.259L323.068 246.449C321.089 251.177 318.912 255.904 317.242 260.747L341.073 270.619C362.01 279.327 351.195 296.774 345.287 310.808L332.339 341.875C356.771 349.213 371.526 363.822 390.622 380.182C396.497 385.216 437.17 422.8 437.473 429.25C437.891 438.158 420.266 435.335 415.029 435.335L268.875 435.339L100.942 435.337C94.616 435.338 88.0988 435.718 81.7987 435.389C74.6938 435.017 75.1057 429.223 75.3921 423.483C76.6892 397.489 94.5262 379.391 120.11 375.467C142.806 344.884 164.726 306.411 207.544 302.968C212.401 302.578 217.142 303.129 221.99 303.06C226.268 292.447 230.191 281.469 233.965 270.659C237.741 259.842 239.79 245.944 250.717 240.502C261.607 235.079 274.715 243.866 285.731 247.61L316.556 170.946C318.975 164.905 321.221 158.873 324.041 152.999C317.389 147.003 324.442 137.911 326.967 130.664ZM328.189 89.7277C320.268 113.228 323.992 115.337 345.393 124.141L357.559 129.025C366.054 132.499 374.5 136.985 382.839 130.664C386.858 126.499 388.777 121.961 390.295 116.412C384.512 113.672 378.55 111.402 372.677 108.874L328.189 89.7277ZM338.539 135.153C337.549 137.934 336.335 140.759 335.586 143.612C337.789 144.575 350.988 150.563 352.271 150.329C353.451 147.634 354.592 144.915 355.867 142.264C350.115 139.826 344.378 137.378 338.539 135.153ZM335.586 157.073L309.99 220.501C305.646 231.233 301.764 242.212 296.97 252.753C298.644 253.278 304.161 255.806 305.476 255.662C314.163 235.191 322.333 214.511 330.714 193.914C335.163 182.981 340.354 172.093 344.198 160.936C341.442 159.426 338.498 158.247 335.586 157.073ZM257.343 251.275C250.461 254.263 237.928 296.687 234.176 306.082C237.308 306.99 240.239 308.537 243.159 309.969C248.279 299.123 252.168 287.561 256.86 276.501C263.627 260.547 262.461 263.502 280.035 270.903L300.318 279.238C307.754 282.249 318.692 285.725 325.515 289.22C330.71 291.88 325.543 299.44 324.041 303.06L314.012 326.823C311.944 331.755 309.526 336.764 307.958 341.875C311.97 340.927 315.64 340.62 319.752 340.722C324.327 326.829 330.858 313.398 336.228 299.777C337.776 295.852 339.98 291.764 340.906 287.671C338.986 281.138 330.896 280.015 325.277 277.736L270.91 255.475C266.789 253.789 261.937 250.881 257.343 251.275ZM268.875 279.828C264.722 291.77 259.532 303.854 254.5 315.501C265.409 326.029 278.303 335.194 289.518 345.94C290.788 345.716 291.994 345.45 293.232 345.081L294.559 341.875C300.817 327.376 306.305 312.539 312.575 298.028C298.039 291.892 283.348 286.107 268.875 279.828ZM209.647 315.501C177.641 316.82 153.645 348.89 136.448 373.43C125.668 388.815 134.059 384.594 117.718 388.438C101.079 392.353 88.9428 405.657 87.6788 422.931L301.606 422.931L404.954 422.943C408.903 422.95 413.035 423.256 416.959 422.931C402.41 407.184 389.328 395.527 373.211 381.842C354.235 365.73 335.087 349.174 308.542 354.003C303.686 354.886 290.2 359.683 286.551 358.681C284.102 358.008 267.192 342.71 264.096 340.017C252.375 329.823 226.864 310.676 209.647 315.501Z"/>
	<path transform="scale(2 2)" d="M211.845 348.806C202.647 349.356 201.329 338.057 209.647 335.777C218.454 336.436 219.718 345.928 211.845 348.806Z"/>
	<path transform="scale(2 2)" d="M252.896 391.666C243.88 392.111 242.328 380.505 250.924 378.541C259.581 378.045 261.54 388.958 252.896 391.666Z"/>
	<path transform="scale(2 2)" d="M168.656 397.174C159.976 397.204 159.021 386.849 166.871 384.55C175.536 384.412 176.702 394.609 168.656 397.174Z"/>
	<path transform="scale(2 2)" d="M322.043 400.067C313.846 401.39 311.078 390.802 318.75 387.557C327.55 386.228 329.917 397.088 322.043 400.067Z"/>
</svg>
