<?xml version="1.0" encoding="utf-8" ?>
<svg xmlns="http://www.w3.org/2000/svg" xmlns:xlink="http://www.w3.org/1999/xlink" width="1024" height="1024">
	<path transform="scale(2 2)" d="M179.324 92.3453C179.987 82.2173 174.637 59.0948 185.662 56.5405C195.387 56.3357 193.781 66.1528 193.768 72.7231L193.747 92.3453C199.765 87.4199 207.198 78.2867 212.666 74.5234C219.337 69.9329 226.987 78.5005 222.457 84.8039C217.358 91.8997 200.68 105.803 193.747 112.807L193.747 174.104C199.04 169.645 204.019 164.366 208.916 159.48L229.233 139.52C233.153 135.728 237.026 131.842 241.123 128.244C239.653 120.933 236.285 98.948 236.462 91.714C236.6 86.1202 242.668 82.3784 247.495 85.4617C252.251 88.4996 252.83 109.115 254.321 115.588L266.437 103.607C269.245 100.813 272.161 97.2345 275.5 95.1109C281.473 91.3121 289.435 99.6125 285.017 105.692C282.836 108.693 279.605 111.245 276.913 113.806L264.43 125.885C270.637 126.963 289.385 127.296 292.705 131.539C295.985 135.733 293.206 142.46 287.811 142.926C283.896 143.264 278.802 142.126 274.847 141.607L251.336 138.513L221.572 167.45C215.703 173.152 209.723 178.772 203.987 184.606L266.65 184.606C271.477 179.246 276.785 174.425 281.836 169.289C285.844 165.212 293.268 155.014 299.396 154.594C304.825 154.222 308.823 160.486 305.896 165.219C303.045 169.83 291.488 180.003 287.191 184.606L307.002 184.589C310.549 184.588 314.447 184.284 317.944 184.834C323.692 185.738 325.444 193.095 321.404 197.112C318.226 200.272 310.679 199.015 306.666 199.015L286.368 198.994L297.873 210.352C301.951 214.395 309.037 219.546 303.47 225.604C296.969 232.677 290.358 223.791 285.768 219.364C278.818 212.661 272.145 205.675 265.193 198.994C258.646 198.696 251.941 198.983 245.379 198.986L204.978 198.994C209.812 205.047 216.144 210.316 221.725 215.7L251.336 244.488L251.845 244.37C257.964 242.999 279.259 239.427 285.721 239.772C292.985 240.16 296.077 251.421 288.65 253.849C283.733 255.456 270.64 256.132 264.43 257.114C265.841 258.77 267.574 260.276 269.137 261.803L278.851 271.152C280.737 272.947 282.941 274.728 284.44 276.867C288.133 282.141 283.858 288.482 277.856 288.38C273.514 288.305 268.831 282.078 266.056 279.32L254.321 267.707C253.106 274.16 253.015 292.326 248.663 295.968C243.979 299.889 237.038 297.108 236.612 291.097C236.34 287.249 237.463 282.743 237.959 278.903L241.123 254.377C224.973 239.678 209.865 223.828 193.747 209.084L193.747 270.486C195.954 272.823 198.442 274.963 200.751 277.211L214.456 290.698C217.154 293.337 222.492 297.029 223.478 300.878C224.492 304.837 221.535 309.146 217.542 309.783C211.777 310.703 199.913 295.935 194.109 291.588L193.747 291.32L193.765 308.788C193.763 313.752 194.913 320.758 191.61 324.92C190.177 326.245 188.474 327.329 186.457 327.366C177.701 327.53 179.289 316.926 179.299 311.29L179.324 291.32C174.859 294.915 162.617 308.523 158.134 309.117C152.215 309.901 147.336 303.068 150.787 298.015C156.696 289.361 171.972 279.428 179.324 270.486L179.324 210.429C164.993 222.165 146.602 240.947 133.53 254.377C134.955 265.732 137.167 277.126 138.101 288.524C138.659 295.345 130.699 300.604 125.596 295.234C122.754 292.242 121.273 272.217 121.414 267.707C113.567 272.528 108.54 281.476 101.597 286.081C95.5515 290.092 87.194 283.284 91.3416 276.825C94.6197 271.72 105.4 262.559 110.257 257.114C104.737 256.179 84.5492 255.04 81.2312 251.307C77.5933 247.215 79.9867 239.934 85.5907 239.566C90.3434 239.254 95.7932 240.615 100.528 241.3L123.104 244.488C125.002 241.802 127.629 239.611 130.004 237.352L157.701 210.669C161.731 206.737 165.64 202.683 169.898 198.994C163.385 199.406 155.679 199.003 149.061 199.001L106.847 198.994C100.746 203.257 89.1963 215.991 83.6439 221.708C70.4577 235.286 64.1368 223.18 68.0571 217.284C70.9181 212.981 81.9222 202.876 86.0327 198.994L66.5974 199.009C62.3732 199.011 54.4258 200.189 51.0017 197.035C46.7193 193.09 48.9939 186.056 54.4842 184.969C58.2295 184.227 62.5277 184.595 66.3463 184.595L86.0327 184.606C80.3201 178.623 61.864 165.274 68.4681 157.789C74.8124 150.599 83.5717 161.859 87.7766 166.016C94.0912 172.26 100.269 178.635 106.847 184.606L169.898 184.606C162.1 177.67 154.786 170.312 147.321 163.032L121.917 138.513C112.141 140.292 101.698 141.366 91.8012 142.764C75.4062 145.082 78.4472 131.158 84.4267 129.197C88.1987 127.96 105.787 126.005 110.257 125.885C105.768 120.956 88.2605 106.823 88.8801 100.656C89.5241 94.2443 96.0877 92.6381 100.647 96.1315C104.176 98.8348 117.451 112.279 119.881 115.588C121.432 107.517 120.819 95.2983 122.734 88.5922C124.645 81.8973 135.717 82.7612 136.669 89.7123C137.136 93.1205 136.449 96.9752 136.109 100.392L134.479 115.869C134.003 120.214 133.43 124.498 133.53 128.879C139.66 137.244 156.727 152.291 164.65 159.785C169.587 164.455 174.937 168.905 179.324 174.104L179.324 112.807C172.484 103.983 155.82 92.1873 151.076 84.2505C148.108 79.2875 152.545 72.9708 158.093 73.4385C161.887 73.7583 176.543 88.9988 179.324 92.3453Z"/>
	<path transform="scale(2 2)" d="M360.629 284.944C360.677 277.095 357.419 263.027 366.981 261.04C378.056 260.378 375.486 278.102 375.454 284.944C377.877 282.1 380.851 277.871 384.835 277.447C388.714 277.035 392.801 280.142 392.795 284.15C392.788 288.682 388.54 291.727 385.627 294.598L375.454 304.567L375.454 338.949C380.326 333.042 392.687 320.801 398.443 316.235C398.58 310.162 396.933 292.964 400.809 288.972C403.627 286.069 408.516 286.25 411.28 289.119C414.308 292.263 413.499 297.347 413.398 301.343C416.441 298.054 426.271 287.162 430.153 286.805C434.191 286.434 438.202 289.574 438.39 293.702C438.619 298.73 427.229 308.037 423.363 312.154C427.035 312.209 432.313 311.668 435.252 314.214C439.367 317.777 437.977 325.513 432.463 326.6C429.538 327.177 426.261 326.911 423.279 326.911L408.25 326.898C400.404 334.237 392.51 342.578 384.975 350.264L406.362 350.27C409.653 350.277 414.83 350.968 417.849 350.072C423.416 348.419 430.492 333.848 436.738 333C440.819 332.447 444.791 335.604 445.011 339.737C445.237 343.979 440.974 347.438 438.321 350.264C444.457 350.235 457.117 348.421 462.05 352.842C466.832 357.127 463.661 363.918 458.132 365.233C453.102 366.43 443.73 365.777 438.321 365.757C440.901 368.257 444.848 371.175 445.195 374.987C445.537 378.734 442.599 382.557 438.756 382.763C433.361 383.053 422.861 369.733 418.3 365.757C407.951 365.652 397.59 365.751 387.241 365.757C391.075 369.879 406.432 386.142 409.592 387.5C415.944 390.228 432.249 385.59 436.464 389.967C439.122 392.727 439.189 397.755 436.362 400.432C433.388 403.248 427.94 402.486 424.166 402.444C427.606 406.158 437.279 414.088 438.112 418.624C439.257 424.854 432.186 429.131 427.049 425.945C422.968 423.415 417.747 416.477 413.398 412.875C413.453 416.674 414.274 422.518 411.515 425.512C407.856 429.482 401.176 427.976 399.559 422.765C397.773 417.012 400.351 405.295 398.662 399.512C397.412 395.232 379.601 379.504 375.454 375.277L375.454 410.338C379.447 414.241 390.633 423.994 393.346 427.903C396.563 432.539 393.474 439.284 387.872 439.769C383.079 440.184 378.819 434.642 375.454 431.734C375.436 440.495 378.505 453.64 368.811 455.975C360.174 456.504 360.539 448.294 360.587 442.04L360.629 430.506C357.383 433.278 354.031 438.729 349.422 438.878C343.464 439.072 340.192 431.788 343.297 426.999C345.797 423.145 356.94 412.907 360.629 409.391L360.629 376.03C353.077 383.561 345.287 390.825 337.758 398.388L337.743 412.635C337.755 416.458 338.801 421.808 335.939 424.913C333.013 428.089 327.454 428.209 324.412 425.151C321.477 422.202 322.323 416.688 322.342 412.875C318.819 416.697 310.309 427.165 305.762 428.234C300.187 429.544 295.177 423.341 297.649 418.122C299.592 414.02 306.651 407.731 309.822 403.354C303.694 403.67 297.241 403.11 297.217 395.265C297.193 387.333 307.615 388.21 312.88 388.212L327.534 388.234C331.374 382.72 345.624 369.38 350.925 365.034L317.28 365.034C312.803 369.42 306.271 377.919 301.48 381.097C294.95 385.429 283.176 377.668 297.322 365.034C291.9 365.032 278.802 366.418 275.141 363.211C270.53 359.173 272.995 351.667 278.693 350.451C282.345 349.672 292.867 350.252 297.322 350.264C283.144 337.658 295.377 330.01 301.229 334.053C303.921 335.913 306.184 338.716 308.445 341.085L317.28 350.264L350.925 350.264C342.902 342.685 335.37 334.657 327.534 326.898C322.784 327.131 303.207 327.857 300.381 325.541C297.074 322.832 296.94 317.3 299.936 314.326C302.947 311.336 308.622 312.13 312.512 312.154C308.809 308.064 301.615 302.278 298.996 298.334C295.741 293.434 298.811 286.403 304.896 286.477C309.213 286.529 320.108 298.641 323.525 302.327C323.592 298.083 322.249 292.177 325.533 288.877C328.376 286.021 333.205 285.79 336.044 288.781C339.104 292.006 337.808 310.902 337.758 316.235C345.728 323.386 352.913 331.506 360.629 338.949L360.629 304.567C356.974 301.377 342.524 289.656 342.767 284.52C342.953 280.604 347.025 277.272 350.864 277.567C354.793 277.868 358.253 282.151 360.629 284.944Z"/>
</svg>
