<?xml version="1.0" encoding="utf-8" ?>
<svg xmlns="http://www.w3.org/2000/svg" xmlns:xlink="http://www.w3.org/1999/xlink" width="1024" height="1024">
	<path transform="scale(2 2)" d="M362.67 448.892L171.129 448.888C164.086 448.889 155.461 449.46 148.599 448.679C124.441 445.929 124.427 425.601 124.43 407.785L124.43 105.721C124.418 85.1877 123.348 64.9374 149.894 62.0163C154.059 61.7561 158.343 61.9914 162.521 61.9999L348.673 62.0041C365.671 62.0049 383.01 63.1887 387.378 84.4905C388.42 89.5698 388.023 95.1855 388.021 100.364L388.018 397.332C388.021 419.751 392.16 443.217 362.67 448.892ZM149.894 74.246C131.562 77.2022 136.449 102.564 136.45 116.734L136.434 412.326C136.423 433.447 138.776 436.799 162.123 436.798L349.348 436.796C353.778 436.798 358.245 436.957 362.67 436.793C380.782 432.055 375.738 406.707 375.729 391.659L375.722 116.335C375.729 101.925 380.919 75.3865 359.844 74.368C347.849 73.7883 335.667 74.2427 323.646 74.2455L161.655 74.2392C157.756 74.2361 153.786 74.0794 149.894 74.246Z"/>
	<path transform="scale(2 2)" d="M185.52 141.171C182.504 144.603 177.387 152.082 172.129 148.311C167.91 145.286 150.016 125.398 147.559 121.588C139.505 109.094 146.899 92.8112 161.386 90.577C166.864 90.0638 170.494 91.2541 175.266 93.8948C188.294 86.1125 205.556 93.7738 206.295 109.399C206.75 119.006 200.272 125.362 194.182 131.814L185.52 141.171ZM163.25 102.792C149.305 106.192 159.936 117.376 165.001 122.732C168.396 126.322 171.713 130.082 175.266 133.511C178.143 130.274 181.264 127.285 184.194 124.104C187.396 120.636 194.083 115.131 193.904 110.221C193.66 103.502 185.41 100.538 181.082 105.545C172.261 115.749 170.884 102.488 163.25 102.792Z"/>
	<path transform="scale(2 2)" d="M241.556 153.897C244.469 149.839 251.053 139.661 255.842 138.297C261.582 138.455 268.389 149.501 271.411 153.897C274.996 151.447 287.68 143.737 291.515 143.786C299.128 143.883 295.772 156.021 295.227 160.374C294.429 166.75 293.647 173.115 293.134 179.522L293.466 179.783C323.15 203.468 319.702 241.413 297.21 269.063C319.185 271.129 330.712 298.288 316.408 315.37C312.797 319.683 308.255 323.436 304.284 327.432L274.641 357.273C269.034 362.89 260.814 375.634 252.539 372.566C247.111 368.768 237.027 357.134 231.835 351.916L210.067 330.016C204.406 324.367 197.974 318.783 193.433 312.186C186.856 302.631 189.345 287.507 196.508 279.13C202.4 272.24 209.736 269.789 218.505 269.063C191.472 244.989 191.067 200.603 220.932 178.648C219.727 173.845 214.585 149.664 216.058 146.62C219.658 139.175 235.471 150.886 241.556 153.897ZM256.49 155.496C243.867 172.262 244.064 168.845 230.149 161.963C231.103 166.18 231.836 170.443 232.603 174.697L256.49 174.697L281.192 174.697C281.83 170.475 282.307 166.224 282.586 161.963C262.327 171.483 271.333 169.094 256.49 155.496ZM231.601 186.983C212.738 193.409 207.653 223.977 213.591 241.005C217.691 252.762 225.894 259.694 234.994 267.423C236.429 264.739 236.725 262.338 236.991 259.365C235.461 258.162 233.866 256.903 232.603 255.413C225.341 249.367 221.805 241.229 220.932 231.95C214.064 233.019 208.35 226.656 213.143 220.47C215.448 217.494 223.247 211.845 226.633 208.874C234.458 202.005 241.782 194.856 248.617 186.983C242.927 187.281 237.272 186.789 231.601 186.983ZM264.047 186.983C269.444 192.357 275.479 197.692 282.065 201.561C286.111 203.937 293.648 205.997 296.601 209.031C299.985 212.509 298.833 228.166 297.579 232.039C296.607 235.044 294.256 236.231 291.588 237.517C288.037 247.817 284.017 252.956 275.238 259.365C275.571 261.06 276.241 268.318 279.125 267.423C301.337 252.068 311.102 223.029 295.059 199.771C284.106 183.895 280.917 187.073 264.047 186.983ZM256.49 197.134C247.634 207.506 237.122 214.533 228.657 223.904C235.314 226.697 230.942 239.778 241.805 247.604C249.173 252.911 250.574 249.128 249.296 260.075C245.367 293.745 220.628 274.25 207.651 285.412C201.443 290.753 199.858 300.949 205.098 307.508C208.947 312.328 215.777 318.457 220.284 322.959C232.158 334.818 244.354 346.48 255.842 358.711L257.661 356.818C270.498 344.167 283.356 331.473 295.925 318.556C303.99 310.268 318.792 299.233 306.224 286.479C298.664 278.808 288.184 282.712 278.808 281.11C266.616 279.026 262.338 265.141 262.471 254.338C262.534 249.13 274.942 248.987 278.885 235.487C280.567 229.726 279.109 224.829 286.421 223.904C286.6 221.712 286.56 219.63 286.421 217.439C276.406 211.93 271.018 209.324 262.24 201.91C260.493 200.434 258.471 198.185 256.49 197.134Z"/>
	<path transform="scale(2 2)" d="M338.124 417.536L337.903 417.35C334.313 416.95 329.08 424.283 316.671 419.2C304.722 414.305 301.226 398.049 309.234 388.155C312.813 383.733 333.084 362.171 335.299 361.305C337.659 361.117 339.475 361.23 341.574 362.406C343.744 363.622 364.484 388.587 366.714 391.933C376.722 406.95 357.859 428.765 338.124 417.536ZM337.196 375.922C334.01 379.093 316.75 397.137 316.808 400.705C316.912 407.183 325.484 412.249 329.968 406.593C332.181 403.802 333.274 401.174 337.196 400.61C342.746 401.175 343.42 408.102 348.55 408.689C353.43 409.248 358.886 403.066 356.341 398.45C355.272 396.513 339.915 377.833 337.196 375.922Z"/>
</svg>
